<svg width="574" height="294" viewBox="0 0 574 294" fill="none" xmlns="http://www.w3.org/2000/svg">
<path d="M301 90C301 40.2944 341.294 0 391 0H484C533.706 0 574 40.2944 574 90V279C574 287.284 567.284 294 559 294H316C307.716 294 301 287.284 301 279V90Z" fill="#FFCC00"/>
<path d="M224 196C251.062 196 273 217.938 273 245C273 272.062 251.062 294 224 294H49C21.938 294 0 272.062 0 245C0 217.938 21.938 196 49 196C21.938 196 0 174.062 0 147C0 119.938 21.938 98 49 98C21.938 98 0 76.062 0 49C0 21.938 21.938 0 49 0H224C251.062 0 273 21.938 273 49C273 76.062 251.062 98 224 98C251.062 98 273 119.938 273 147C273 174.062 251.062 196 224 196Z" fill="#FF2D55"/>
</svg>
